<svg viewBox="0 0 300 320" xmlns="http://www.w3.org/2000/svg" fill="none" stroke="#C69B3C" stroke-width="1.5" stroke-linecap="round" stroke-linejoin="round">
  <path d="M150 300 C150 260 149 230 150 195"/>
  <ellipse cx="150" cy="188" rx="11" ry="15"/>
  <path d="M150 200 C172 186 188 162 175 140 C164 122 150 136 150 200"/>
  <path d="M150 200 C128 186 112 162 125 140 C136 122 150 136 150 200"/>
  <path d="M150 210 C190 202 212 178 206 152 C200 130 175 138 150 210"/>
  <path d="M150 210 C110 202 88 178 94 152 C100 130 125 138 150 210"/>
  <path d="M150 218 C198 214 222 190 220 162 C218 140 192 146 150 218"/>
  <path d="M150 218 C102 214 78 190 80 162 C82 140 108 146 150 218"/>
  <path d="M100 295 C118 278 148 270 150 285"/>
  <path d="M200 295 C182 278 152 270 150 285"/>
  <path d="M75 305 C105 292 145 285 150 300"/>
  <path d="M225 305 C195 292 155 285 150 300"/>
  <path d="M120 285 C130 278 142 274 150 285" stroke-width="0.8"/>
  <path d="M108 295 C120 288 138 283 150 295" stroke-width="0.8"/>
</svg>
