<svg xmlns="http://www.w3.org/2000/svg" viewBox="0 0 100 100">
  <circle cx="50" cy="50" r="48" fill="#0D1F17"/>
  <!-- Corps -->
  <ellipse cx="50" cy="58" rx="14" ry="22" fill="none" stroke="#C69B3C" stroke-width="2.5"/>
  <!-- Tête -->
  <ellipse cx="50" cy="33" rx="11" ry="9" fill="none" stroke="#C69B3C" stroke-width="2.5"/>
  <!-- Yeux -->
  <circle cx="44" cy="30" r="2.5" fill="#C69B3C"/>
  <circle cx="56" cy="30" r="2.5" fill="#C69B3C"/>
  <!-- Pattes avant -->
  <path d="M 36 48 L 26 42 M 26 42 L 21 39 M 26 42 L 23 46" stroke="#C69B3C" stroke-width="2" stroke-linecap="round" fill="none"/>
  <path d="M 64 48 L 74 42 M 74 42 L 79 39 M 74 42 L 77 46" stroke="#C69B3C" stroke-width="2" stroke-linecap="round" fill="none"/>
  <!-- Pattes arrière -->
  <path d="M 36 68 L 25 74 M 25 74 L 20 77 M 25 74 L 22 70" stroke="#C69B3C" stroke-width="2" stroke-linecap="round" fill="none"/>
  <path d="M 64 68 L 75 74 M 75 74 L 80 77 M 75 74 L 78 70" stroke="#C69B3C" stroke-width="2" stroke-linecap="round" fill="none"/>
  <!-- Queue -->
  <path d="M 50 80 Q 52 88 58 90 Q 64 91 63 85" stroke="#C69B3C" stroke-width="2.2" fill="none" stroke-linecap="round"/>
</svg>
